<mxfile host="app.diagrams.net" modified="2020-12-07T07:32:18.608Z" agent="5.0 (Macintosh; Intel Mac OS X 10_15_6) AppleWebKit/537.36 (KHTML, like Gecko) Chrome/87.0.4280.88 Safari/537.36" etag="DtJM38txR2ZQun78Wuyc" version="13.10.1" type="github">
  <diagram id="F2XTJzHIMbVGS7mP0Tgp" name="第 1 页">
    <mxGraphModel dx="3427" dy="613" grid="1" gridSize="10" guides="1" tooltips="1" connect="0" arrows="1" fold="1" page="1" pageScale="1" pageWidth="827" pageHeight="1169" math="0" shadow="0">
      <root>
        <mxCell id="0" />
        <mxCell id="1" parent="0" />
        <mxCell id="Y2_X4WTz1KRsOYMLC81A-43" style="edgeStyle=orthogonalEdgeStyle;rounded=0;orthogonalLoop=1;jettySize=auto;html=1;" parent="1" source="Y2_X4WTz1KRsOYMLC81A-12" target="Y2_X4WTz1KRsOYMLC81A-30" edge="1">
          <mxGeometry relative="1" as="geometry" />
        </mxCell>
        <mxCell id="Y2_X4WTz1KRsOYMLC81A-12" value="签到" style="rounded=0;whiteSpace=wrap;html=1;" parent="1" vertex="1">
          <mxGeometry x="-90" y="30" width="120" height="60" as="geometry" />
        </mxCell>
        <mxCell id="Y2_X4WTz1KRsOYMLC81A-33" style="edgeStyle=orthogonalEdgeStyle;rounded=0;orthogonalLoop=1;jettySize=auto;html=1;entryX=0.425;entryY=0;entryDx=0;entryDy=0;entryPerimeter=0;" parent="1" source="Y2_X4WTz1KRsOYMLC81A-30" target="Y2_X4WTz1KRsOYMLC81A-31" edge="1">
          <mxGeometry relative="1" as="geometry" />
        </mxCell>
        <mxCell id="Y2_X4WTz1KRsOYMLC81A-35" value="&lt;font style=&quot;font-size: 16px&quot;&gt;失败&lt;/font&gt;" style="edgeLabel;html=1;align=center;verticalAlign=middle;resizable=0;points=[];" parent="Y2_X4WTz1KRsOYMLC81A-33" vertex="1" connectable="0">
          <mxGeometry x="-0.3945" y="3" relative="1" as="geometry">
            <mxPoint x="8" y="-3" as="offset" />
          </mxGeometry>
        </mxCell>
        <mxCell id="Y2_X4WTz1KRsOYMLC81A-47" style="edgeStyle=orthogonalEdgeStyle;rounded=0;orthogonalLoop=1;jettySize=auto;html=1;" parent="1" source="Y2_X4WTz1KRsOYMLC81A-30" target="Y2_X4WTz1KRsOYMLC81A-37" edge="1">
          <mxGeometry relative="1" as="geometry" />
        </mxCell>
        <mxCell id="Y2_X4WTz1KRsOYMLC81A-53" value="&lt;font style=&quot;font-size: 15px&quot;&gt;开启&lt;/font&gt;" style="edgeLabel;html=1;align=center;verticalAlign=middle;resizable=0;points=[];" parent="Y2_X4WTz1KRsOYMLC81A-47" vertex="1" connectable="0">
          <mxGeometry x="-0.4778" y="1" relative="1" as="geometry">
            <mxPoint x="13" y="1" as="offset" />
          </mxGeometry>
        </mxCell>
        <mxCell id="Y2_X4WTz1KRsOYMLC81A-30" value="校验定位是否开启" style="shape=parallelogram;perimeter=parallelogramPerimeter;whiteSpace=wrap;html=1;fixedSize=1;" parent="1" vertex="1">
          <mxGeometry x="-90" y="170" width="120" height="60" as="geometry" />
        </mxCell>
        <mxCell id="Y2_X4WTz1KRsOYMLC81A-31" value="提示定位失败提醒用户开启定位" style="rounded=1;whiteSpace=wrap;html=1;" parent="1" vertex="1">
          <mxGeometry x="-230" y="260" width="120" height="60" as="geometry" />
        </mxCell>
        <mxCell id="Y2_X4WTz1KRsOYMLC81A-40" style="edgeStyle=orthogonalEdgeStyle;rounded=0;orthogonalLoop=1;jettySize=auto;html=1;" parent="1" source="Y2_X4WTz1KRsOYMLC81A-36" target="Y2_X4WTz1KRsOYMLC81A-38" edge="1">
          <mxGeometry relative="1" as="geometry" />
        </mxCell>
        <mxCell id="Y2_X4WTz1KRsOYMLC81A-42" value="&lt;font style=&quot;font-size: 14px&quot;&gt;距离不满足签到&lt;/font&gt;" style="edgeLabel;html=1;align=center;verticalAlign=middle;resizable=0;points=[];" parent="Y2_X4WTz1KRsOYMLC81A-40" vertex="1" connectable="0">
          <mxGeometry x="-0.3556" y="1" relative="1" as="geometry">
            <mxPoint x="36" y="31" as="offset" />
          </mxGeometry>
        </mxCell>
        <mxCell id="Y2_X4WTz1KRsOYMLC81A-52" style="edgeStyle=orthogonalEdgeStyle;rounded=0;orthogonalLoop=1;jettySize=auto;html=1;" parent="1" source="Y2_X4WTz1KRsOYMLC81A-36" target="Y2_X4WTz1KRsOYMLC81A-51" edge="1">
          <mxGeometry relative="1" as="geometry" />
        </mxCell>
        <mxCell id="Y2_X4WTz1KRsOYMLC81A-54" value="满足签到" style="edgeLabel;html=1;align=center;verticalAlign=middle;resizable=0;points=[];" parent="Y2_X4WTz1KRsOYMLC81A-52" vertex="1" connectable="0">
          <mxGeometry x="0.1765" y="28" relative="1" as="geometry">
            <mxPoint x="-30" y="28" as="offset" />
          </mxGeometry>
        </mxCell>
        <mxCell id="Y2_X4WTz1KRsOYMLC81A-36" value="校验签到距离是否满足条件" style="shape=parallelogram;perimeter=parallelogramPerimeter;whiteSpace=wrap;html=1;fixedSize=1;" parent="1" vertex="1">
          <mxGeometry x="80" y="410" width="120" height="60" as="geometry" />
        </mxCell>
        <mxCell id="Y2_X4WTz1KRsOYMLC81A-49" style="edgeStyle=orthogonalEdgeStyle;rounded=0;orthogonalLoop=1;jettySize=auto;html=1;entryX=0.5;entryY=0;entryDx=0;entryDy=0;" parent="1" source="Y2_X4WTz1KRsOYMLC81A-37" target="Y2_X4WTz1KRsOYMLC81A-36" edge="1">
          <mxGeometry relative="1" as="geometry" />
        </mxCell>
        <mxCell id="Y2_X4WTz1KRsOYMLC81A-50" value="&lt;font style=&quot;font-size: 15px&quot;&gt;获取签到距离&lt;/font&gt;" style="edgeLabel;html=1;align=center;verticalAlign=middle;resizable=0;points=[];" parent="Y2_X4WTz1KRsOYMLC81A-49" vertex="1" connectable="0">
          <mxGeometry x="-0.2444" y="1" relative="1" as="geometry">
            <mxPoint as="offset" />
          </mxGeometry>
        </mxCell>
        <mxCell id="Y2_X4WTz1KRsOYMLC81A-37" value="更新指定用户的地址信息" style="rounded=1;whiteSpace=wrap;html=1;" parent="1" vertex="1">
          <mxGeometry x="80" y="260" width="120" height="60" as="geometry" />
        </mxCell>
        <mxCell id="Y2_X4WTz1KRsOYMLC81A-38" value="签到失败, 弹窗提示用户修改客户资料" style="rounded=1;whiteSpace=wrap;html=1;" parent="1" vertex="1">
          <mxGeometry x="260" y="510" width="120" height="60" as="geometry" />
        </mxCell>
        <mxCell id="Y2_X4WTz1KRsOYMLC81A-51" value="签到成功" style="rounded=1;whiteSpace=wrap;html=1;" parent="1" vertex="1">
          <mxGeometry x="-70" y="510" width="120" height="60" as="geometry" />
        </mxCell>
        <mxCell id="_XWk0OlOO5uHfHKQCLGM-46" style="edgeStyle=orthogonalEdgeStyle;rounded=0;orthogonalLoop=1;jettySize=auto;html=1;" edge="1" parent="1" source="_XWk0OlOO5uHfHKQCLGM-3" target="_XWk0OlOO5uHfHKQCLGM-43">
          <mxGeometry relative="1" as="geometry" />
        </mxCell>
        <mxCell id="_XWk0OlOO5uHfHKQCLGM-3" value="创建日程" style="rounded=0;whiteSpace=wrap;html=1;" vertex="1" parent="1">
          <mxGeometry x="-2180" y="465" width="120" height="60" as="geometry" />
        </mxCell>
        <mxCell id="_XWk0OlOO5uHfHKQCLGM-45" style="edgeStyle=orthogonalEdgeStyle;rounded=0;orthogonalLoop=1;jettySize=auto;html=1;" edge="1" parent="1" source="_XWk0OlOO5uHfHKQCLGM-4" target="_XWk0OlOO5uHfHKQCLGM-43">
          <mxGeometry relative="1" as="geometry" />
        </mxCell>
        <mxCell id="_XWk0OlOO5uHfHKQCLGM-4" value="创建订单" style="rounded=0;whiteSpace=wrap;html=1;" vertex="1" parent="1">
          <mxGeometry x="-1815" y="465" width="120" height="60" as="geometry" />
        </mxCell>
        <mxCell id="_XWk0OlOO5uHfHKQCLGM-14" style="edgeStyle=orthogonalEdgeStyle;rounded=0;orthogonalLoop=1;jettySize=auto;html=1;" edge="1" parent="1" source="_XWk0OlOO5uHfHKQCLGM-10" target="_XWk0OlOO5uHfHKQCLGM-13">
          <mxGeometry relative="1" as="geometry" />
        </mxCell>
        <mxCell id="_XWk0OlOO5uHfHKQCLGM-15" value="没有开启定位" style="edgeLabel;html=1;align=center;verticalAlign=middle;resizable=0;points=[];" vertex="1" connectable="0" parent="_XWk0OlOO5uHfHKQCLGM-14">
          <mxGeometry x="-0.55" y="2" relative="1" as="geometry">
            <mxPoint as="offset" />
          </mxGeometry>
        </mxCell>
        <mxCell id="_XWk0OlOO5uHfHKQCLGM-17" style="edgeStyle=orthogonalEdgeStyle;rounded=0;orthogonalLoop=1;jettySize=auto;html=1;" edge="1" parent="1" source="_XWk0OlOO5uHfHKQCLGM-10" target="_XWk0OlOO5uHfHKQCLGM-16">
          <mxGeometry relative="1" as="geometry" />
        </mxCell>
        <mxCell id="_XWk0OlOO5uHfHKQCLGM-10" value="判断是否开启定位" style="rhombus;whiteSpace=wrap;html=1;" vertex="1" parent="1">
          <mxGeometry x="-1390" y="775" width="130" height="120" as="geometry" />
        </mxCell>
        <mxCell id="_XWk0OlOO5uHfHKQCLGM-13" value="弹窗提示定位失败,并结束" style="rounded=1;whiteSpace=wrap;html=1;" vertex="1" parent="1">
          <mxGeometry x="-1620" y="935" width="120" height="60" as="geometry" />
        </mxCell>
        <mxCell id="_XWk0OlOO5uHfHKQCLGM-52" style="edgeStyle=orthogonalEdgeStyle;rounded=0;orthogonalLoop=1;jettySize=auto;html=1;" edge="1" parent="1" source="_XWk0OlOO5uHfHKQCLGM-16" target="_XWk0OlOO5uHfHKQCLGM-21">
          <mxGeometry relative="1" as="geometry" />
        </mxCell>
        <mxCell id="_XWk0OlOO5uHfHKQCLGM-16" value="获取当前定位坐标" style="rounded=0;whiteSpace=wrap;html=1;" vertex="1" parent="1">
          <mxGeometry x="-1200" y="935" width="120" height="60" as="geometry" />
        </mxCell>
        <mxCell id="_XWk0OlOO5uHfHKQCLGM-22" style="edgeStyle=orthogonalEdgeStyle;rounded=0;orthogonalLoop=1;jettySize=auto;html=1;" edge="1" parent="1" source="_XWk0OlOO5uHfHKQCLGM-21" target="_XWk0OlOO5uHfHKQCLGM-24">
          <mxGeometry relative="1" as="geometry">
            <mxPoint x="-1410" y="1290" as="targetPoint" />
            <Array as="points">
              <mxPoint x="-1410" y="1135" />
            </Array>
          </mxGeometry>
        </mxCell>
        <mxCell id="_XWk0OlOO5uHfHKQCLGM-23" value="更细信息失败" style="edgeLabel;html=1;align=center;verticalAlign=middle;resizable=0;points=[];" vertex="1" connectable="0" parent="_XWk0OlOO5uHfHKQCLGM-22">
          <mxGeometry x="-0.4062" y="4" relative="1" as="geometry">
            <mxPoint as="offset" />
          </mxGeometry>
        </mxCell>
        <mxCell id="_XWk0OlOO5uHfHKQCLGM-25" style="edgeStyle=orthogonalEdgeStyle;rounded=0;orthogonalLoop=1;jettySize=auto;html=1;" edge="1" parent="1" source="_XWk0OlOO5uHfHKQCLGM-21" target="_XWk0OlOO5uHfHKQCLGM-27">
          <mxGeometry relative="1" as="geometry">
            <mxPoint x="-950" y="1290" as="targetPoint" />
          </mxGeometry>
        </mxCell>
        <mxCell id="_XWk0OlOO5uHfHKQCLGM-21" value="&lt;span&gt;更新日程拜访记录坐标信息&lt;/span&gt;" style="rhombus;whiteSpace=wrap;html=1;" vertex="1" parent="1">
          <mxGeometry x="-1235" y="1080" width="190" height="110" as="geometry" />
        </mxCell>
        <mxCell id="_XWk0OlOO5uHfHKQCLGM-24" value="提示更新失败原因" style="rounded=1;whiteSpace=wrap;html=1;" vertex="1" parent="1">
          <mxGeometry x="-1480" y="1230" width="120" height="60" as="geometry" />
        </mxCell>
        <mxCell id="_XWk0OlOO5uHfHKQCLGM-28" style="edgeStyle=orthogonalEdgeStyle;rounded=0;orthogonalLoop=1;jettySize=auto;html=1;" edge="1" parent="1" source="_XWk0OlOO5uHfHKQCLGM-27" target="_XWk0OlOO5uHfHKQCLGM-29">
          <mxGeometry relative="1" as="geometry">
            <mxPoint x="-1180" y="1400" as="targetPoint" />
          </mxGeometry>
        </mxCell>
        <mxCell id="_XWk0OlOO5uHfHKQCLGM-30" value="签到失败" style="edgeLabel;html=1;align=center;verticalAlign=middle;resizable=0;points=[];" vertex="1" connectable="0" parent="_XWk0OlOO5uHfHKQCLGM-28">
          <mxGeometry x="-0.4062" y="2" relative="1" as="geometry">
            <mxPoint as="offset" />
          </mxGeometry>
        </mxCell>
        <mxCell id="_XWk0OlOO5uHfHKQCLGM-31" style="edgeStyle=orthogonalEdgeStyle;rounded=0;orthogonalLoop=1;jettySize=auto;html=1;" edge="1" parent="1" source="_XWk0OlOO5uHfHKQCLGM-27" target="_XWk0OlOO5uHfHKQCLGM-32">
          <mxGeometry relative="1" as="geometry">
            <mxPoint x="-820" y="1390" as="targetPoint" />
          </mxGeometry>
        </mxCell>
        <mxCell id="_XWk0OlOO5uHfHKQCLGM-33" value="签到成功" style="edgeLabel;html=1;align=center;verticalAlign=middle;resizable=0;points=[];" vertex="1" connectable="0" parent="_XWk0OlOO5uHfHKQCLGM-31">
          <mxGeometry x="-0.52" y="-1" relative="1" as="geometry">
            <mxPoint as="offset" />
          </mxGeometry>
        </mxCell>
        <mxCell id="_XWk0OlOO5uHfHKQCLGM-27" value="获取系统设置签到距离&amp;gt;&lt;br&gt;获取更新后信息的距离" style="rounded=0;whiteSpace=wrap;html=1;" vertex="1" parent="1">
          <mxGeometry x="-1040" y="1250" width="160" height="60" as="geometry" />
        </mxCell>
        <mxCell id="_XWk0OlOO5uHfHKQCLGM-29" value="提示签到失败,和修改距离" style="rounded=1;whiteSpace=wrap;html=1;" vertex="1" parent="1">
          <mxGeometry x="-1240" y="1380" width="120" height="60" as="geometry" />
        </mxCell>
        <mxCell id="_XWk0OlOO5uHfHKQCLGM-35" style="edgeStyle=orthogonalEdgeStyle;rounded=0;orthogonalLoop=1;jettySize=auto;html=1;" edge="1" parent="1" source="_XWk0OlOO5uHfHKQCLGM-32" target="_XWk0OlOO5uHfHKQCLGM-34">
          <mxGeometry relative="1" as="geometry" />
        </mxCell>
        <mxCell id="_XWk0OlOO5uHfHKQCLGM-32" value="提示用户填写拜访记录" style="whiteSpace=wrap;html=1;" vertex="1" parent="1">
          <mxGeometry x="-840" y="1380" width="120" height="60" as="geometry" />
        </mxCell>
        <mxCell id="_XWk0OlOO5uHfHKQCLGM-34" value="完成填写拜访记录" style="rounded=1;whiteSpace=wrap;html=1;" vertex="1" parent="1">
          <mxGeometry x="-840" y="1510" width="120" height="60" as="geometry" />
        </mxCell>
        <mxCell id="_XWk0OlOO5uHfHKQCLGM-44" style="edgeStyle=orthogonalEdgeStyle;rounded=0;orthogonalLoop=1;jettySize=auto;html=1;" edge="1" parent="1" target="_XWk0OlOO5uHfHKQCLGM-43">
          <mxGeometry relative="1" as="geometry">
            <mxPoint x="-1940" y="395" as="sourcePoint" />
          </mxGeometry>
        </mxCell>
        <mxCell id="_XWk0OlOO5uHfHKQCLGM-40" value="手动补签" style="rounded=0;whiteSpace=wrap;html=1;" vertex="1" parent="1">
          <mxGeometry x="-1752.5" y="110" width="120" height="60" as="geometry" />
        </mxCell>
        <mxCell id="_XWk0OlOO5uHfHKQCLGM-47" style="edgeStyle=orthogonalEdgeStyle;rounded=0;orthogonalLoop=1;jettySize=auto;html=1;" edge="1" parent="1" source="_XWk0OlOO5uHfHKQCLGM-43" target="_XWk0OlOO5uHfHKQCLGM-48">
          <mxGeometry relative="1" as="geometry">
            <mxPoint x="-1940" y="585" as="targetPoint" />
          </mxGeometry>
        </mxCell>
        <mxCell id="_XWk0OlOO5uHfHKQCLGM-43" value="签到" style="rounded=1;whiteSpace=wrap;html=1;" vertex="1" parent="1">
          <mxGeometry x="-2000" y="465" width="120" height="60" as="geometry" />
        </mxCell>
        <mxCell id="_XWk0OlOO5uHfHKQCLGM-51" style="edgeStyle=orthogonalEdgeStyle;rounded=0;orthogonalLoop=1;jettySize=auto;html=1;" edge="1" parent="1" source="_XWk0OlOO5uHfHKQCLGM-48" target="_XWk0OlOO5uHfHKQCLGM-50">
          <mxGeometry relative="1" as="geometry" />
        </mxCell>
        <mxCell id="_XWk0OlOO5uHfHKQCLGM-55" value="不存在" style="edgeLabel;html=1;align=center;verticalAlign=middle;resizable=0;points=[];" vertex="1" connectable="0" parent="_XWk0OlOO5uHfHKQCLGM-51">
          <mxGeometry x="-0.2276" relative="1" as="geometry">
            <mxPoint as="offset" />
          </mxGeometry>
        </mxCell>
        <mxCell id="_XWk0OlOO5uHfHKQCLGM-53" style="edgeStyle=orthogonalEdgeStyle;rounded=0;orthogonalLoop=1;jettySize=auto;html=1;" edge="1" parent="1" source="_XWk0OlOO5uHfHKQCLGM-48" target="_XWk0OlOO5uHfHKQCLGM-58">
          <mxGeometry relative="1" as="geometry">
            <mxPoint x="-1730" y="695" as="targetPoint" />
          </mxGeometry>
        </mxCell>
        <mxCell id="_XWk0OlOO5uHfHKQCLGM-57" value="存在" style="edgeLabel;html=1;align=center;verticalAlign=middle;resizable=0;points=[];" vertex="1" connectable="0" parent="_XWk0OlOO5uHfHKQCLGM-53">
          <mxGeometry x="-0.4564" y="1" relative="1" as="geometry">
            <mxPoint as="offset" />
          </mxGeometry>
        </mxCell>
        <mxCell id="_XWk0OlOO5uHfHKQCLGM-48" value="当天是否存在日程,并且未拜访" style="rhombus;whiteSpace=wrap;html=1;" vertex="1" parent="1">
          <mxGeometry x="-2010" y="595" width="140" height="90" as="geometry" />
        </mxCell>
        <mxCell id="_XWk0OlOO5uHfHKQCLGM-50" value="提示请先完成今日签到任务, 结束" style="rounded=1;whiteSpace=wrap;html=1;" vertex="1" parent="1">
          <mxGeometry x="-2150" y="705" width="120" height="60" as="geometry" />
        </mxCell>
        <mxCell id="_XWk0OlOO5uHfHKQCLGM-59" value="已拜访" style="edgeStyle=orthogonalEdgeStyle;rounded=0;orthogonalLoop=1;jettySize=auto;html=1;" edge="1" parent="1" source="_XWk0OlOO5uHfHKQCLGM-58" target="_XWk0OlOO5uHfHKQCLGM-61">
          <mxGeometry relative="1" as="geometry">
            <mxPoint x="-1880" y="785" as="targetPoint" />
          </mxGeometry>
        </mxCell>
        <mxCell id="_XWk0OlOO5uHfHKQCLGM-73" style="edgeStyle=orthogonalEdgeStyle;rounded=0;orthogonalLoop=1;jettySize=auto;html=1;" edge="1" parent="1" source="_XWk0OlOO5uHfHKQCLGM-58" target="_XWk0OlOO5uHfHKQCLGM-10">
          <mxGeometry relative="1" as="geometry">
            <Array as="points">
              <mxPoint x="-1325" y="735" />
            </Array>
          </mxGeometry>
        </mxCell>
        <mxCell id="_XWk0OlOO5uHfHKQCLGM-74" value="未拜访" style="edgeLabel;html=1;align=center;verticalAlign=middle;resizable=0;points=[];" vertex="1" connectable="0" parent="_XWk0OlOO5uHfHKQCLGM-73">
          <mxGeometry x="-0.3928" y="3" relative="1" as="geometry">
            <mxPoint as="offset" />
          </mxGeometry>
        </mxCell>
        <mxCell id="_XWk0OlOO5uHfHKQCLGM-58" value="是否拜访" style="rhombus;whiteSpace=wrap;html=1;" vertex="1" parent="1">
          <mxGeometry x="-1775" y="695" width="80" height="80" as="geometry" />
        </mxCell>
        <mxCell id="_XWk0OlOO5uHfHKQCLGM-68" style="edgeStyle=orthogonalEdgeStyle;rounded=0;orthogonalLoop=1;jettySize=auto;html=1;" edge="1" parent="1" source="_XWk0OlOO5uHfHKQCLGM-61" target="_XWk0OlOO5uHfHKQCLGM-66">
          <mxGeometry relative="1" as="geometry" />
        </mxCell>
        <mxCell id="_XWk0OlOO5uHfHKQCLGM-72" value="未填写拜访记录" style="edgeLabel;html=1;align=center;verticalAlign=middle;resizable=0;points=[];" vertex="1" connectable="0" parent="_XWk0OlOO5uHfHKQCLGM-68">
          <mxGeometry x="-0.5333" y="2" relative="1" as="geometry">
            <mxPoint as="offset" />
          </mxGeometry>
        </mxCell>
        <mxCell id="_XWk0OlOO5uHfHKQCLGM-70" style="edgeStyle=orthogonalEdgeStyle;rounded=0;orthogonalLoop=1;jettySize=auto;html=1;" edge="1" parent="1" source="_XWk0OlOO5uHfHKQCLGM-61" target="_XWk0OlOO5uHfHKQCLGM-65">
          <mxGeometry relative="1" as="geometry" />
        </mxCell>
        <mxCell id="_XWk0OlOO5uHfHKQCLGM-71" value="已填写拜访记录" style="edgeLabel;html=1;align=center;verticalAlign=middle;resizable=0;points=[];" vertex="1" connectable="0" parent="_XWk0OlOO5uHfHKQCLGM-70">
          <mxGeometry x="-0.4429" y="-3" relative="1" as="geometry">
            <mxPoint as="offset" />
          </mxGeometry>
        </mxCell>
        <mxCell id="_XWk0OlOO5uHfHKQCLGM-61" value="是否填写拜访记录" style="rhombus;whiteSpace=wrap;html=1;" vertex="1" parent="1">
          <mxGeometry x="-1960" y="795" width="130" height="80" as="geometry" />
        </mxCell>
        <mxCell id="_XWk0OlOO5uHfHKQCLGM-65" value="结束" style="rounded=1;whiteSpace=wrap;html=1;" vertex="1" parent="1">
          <mxGeometry x="-2130" y="935" width="120" height="60" as="geometry" />
        </mxCell>
        <mxCell id="_XWk0OlOO5uHfHKQCLGM-66" value="提示请填写拜访记录" style="rounded=1;whiteSpace=wrap;html=1;" vertex="1" parent="1">
          <mxGeometry x="-1795" y="935" width="120" height="60" as="geometry" />
        </mxCell>
      </root>
    </mxGraphModel>
  </diagram>
</mxfile>
